<svg xmlns="http://www.w3.org/2000/svg" xmlns:xlink="http://www.w3.org/1999/xlink" xmlns:sketch="http://www.bohemiancoding.com/sketch/ns" width="135px" height="40px" viewBox="0 0 135 40" version="1.1"><!-- Generator: Sketch 3.0.4 (8054) - http://www.bohemiancoding.com/sketch --><title>appstore</title><desc>Created with Sketch.</desc><defs/><g stroke="none" stroke-width="1" fill="none" fill-rule="evenodd" sketch:type="MSPage"><g sketch:type="MSLayerGroup"><g sketch:type="MSShapeGroup"><path d="M130.197 40 L4.729 40 C2.122 40 0 37.87 0 35.27 L0 4.73 C0 2.12 2.12 0 4.73 0 L130.197 0 C132.803 0 135 2.12 135 4.73 L135 35.27 C135 37.87 132.8 40 130.2 40 L130.197 40 L130.197 40 Z" fill="#000000"/><path d="M134.032 35.27 C134.032 37.38 132.32 39.1 130.2 39.1 L4.729 39.1 C2.61 39.1 0.89 37.38 0.89 35.27 L0.89 4.72 C0.89 2.61 2.61 0.89 4.73 0.89 L130.197 0.89 C132.318 0.89 134.03 2.61 134.03 4.72 L134.032 35.27 L134.032 35.27 Z" fill="#000000"/><g fill="#FFFFFF"><path d="M30.13 19.78 C30.1 16.56 32.77 14.99 32.89 14.92 C31.38 12.72 29.04 12.42 28.21 12.39 C26.25 12.18 24.34 13.57 23.34 13.57 C22.31 13.57 20.77 12.41 19.11 12.45 C16.97 12.48 14.97 13.72 13.87 15.64 C11.6 19.56 13.29 25.33 15.46 28.5 C16.55 30.05 17.82 31.79 19.48 31.73 C21.1 31.66 21.71 30.69 23.67 30.69 C25.62 30.69 26.19 31.73 27.88 31.69 C29.62 31.66 30.72 30.13 31.77 28.56 C33.02 26.78 33.53 25.03 33.55 24.94 C33.51 24.92 30.16 23.65 30.13 19.78 L30.13 19.78 Z"/><path d="M26.93 10.31 C27.8 9.21 28.4 7.73 28.23 6.22 C26.97 6.27 25.39 7.09 24.48 8.16 C23.67 9.1 22.95 10.65 23.14 12.1 C24.56 12.21 26.02 11.38 26.93 10.31 L26.93 10.31 Z"/></g><g fill="#FFFFFF"><path d="M53.64 31.5 L51.37 31.5 L50.13 27.6 L45.81 27.6 L44.62 31.5 L42.41 31.5 L46.69 18.2 L49.34 18.2 L53.64 31.5 L53.64 31.5 ZM49.76 25.96 L48.63 22.48 C48.51 22.12 48.29 21.29 47.96 19.97 L47.92 19.97 C47.79 20.54 47.58 21.38 47.29 22.48 L46.18 25.96 L49.76 25.96 L49.76 25.96 Z"/><path d="M64.66 26.59 C64.66 28.22 64.22 29.51 63.34 30.46 C62.55 31.3 61.57 31.72 60.4 31.72 C59.13 31.72 58.23 31.27 57.67 30.36 L57.63 30.36 L57.63 35.41 L55.5 35.41 L55.5 25.07 C55.5 24.04 55.47 22.99 55.42 21.91 L57.3 21.91 L57.41 23.43 L57.45 23.43 C58.17 22.28 59.25 21.71 60.69 21.71 C61.83 21.71 62.77 22.16 63.53 23.05 C64.28 23.95 64.66 25.13 64.66 26.59 L64.66 26.59 ZM62.49 26.67 C62.49 25.73 62.28 24.96 61.86 24.36 C61.4 23.72 60.78 23.41 60 23.41 C59.48 23.41 59 23.58 58.57 23.93 C58.14 24.28 57.86 24.74 57.73 25.3 C57.67 25.57 57.63 25.78 57.63 25.95 L57.63 27.55 C57.63 28.25 57.85 28.84 58.27 29.32 C58.7 29.8 59.26 30.04 59.94 30.04 C60.75 30.04 61.37 29.73 61.82 29.12 C62.27 28.5 62.49 27.68 62.49 26.67 L62.49 26.67 Z"/><path d="M75.7 26.59 C75.7 28.22 75.26 29.51 74.38 30.46 C73.59 31.3 72.61 31.72 71.43 31.72 C70.17 31.72 69.26 31.27 68.71 30.36 L68.67 30.36 L68.67 35.41 L66.54 35.41 L66.54 25.07 C66.54 24.04 66.51 22.99 66.46 21.91 L68.33 21.91 L68.45 23.43 L68.49 23.43 C69.2 22.28 70.28 21.71 71.73 21.71 C72.86 21.71 73.81 22.16 74.56 23.05 C75.32 23.95 75.7 25.13 75.7 26.59 L75.7 26.59 ZM73.53 26.67 C73.53 25.73 73.32 24.96 72.89 24.36 C72.43 23.72 71.82 23.41 71.04 23.41 C70.51 23.41 70.04 23.58 69.61 23.93 C69.18 24.28 68.9 24.74 68.77 25.3 C68.7 25.57 68.67 25.78 68.67 25.95 L68.67 27.55 C68.67 28.25 68.88 28.84 69.31 29.32 C69.74 29.8 70.29 30.04 70.98 30.04 C71.78 30.04 72.41 29.73 72.86 29.12 C73.3 28.5 73.53 27.68 73.53 26.67 L73.53 26.67 Z"/><path d="M88.04 27.77 C88.04 28.9 87.65 29.82 86.86 30.54 C85.99 31.31 84.78 31.7 83.23 31.7 C81.8 31.7 80.65 31.43 79.78 30.87 L80.28 29.1 C81.21 29.66 82.24 29.95 83.36 29.95 C84.16 29.95 84.79 29.76 85.24 29.4 C85.68 29.04 85.91 28.55 85.91 27.95 C85.91 27.41 85.72 26.95 85.35 26.58 C84.99 26.21 84.37 25.87 83.52 25.55 C81.19 24.68 80.02 23.41 80.02 21.74 C80.02 20.64 80.43 19.75 81.25 19.05 C82.06 18.35 83.15 18 84.51 18 C85.72 18 86.72 18.21 87.53 18.63 L86.99 20.37 C86.24 19.96 85.4 19.76 84.45 19.76 C83.7 19.76 83.11 19.94 82.69 20.31 C82.34 20.64 82.16 21.04 82.16 21.52 C82.16 22.04 82.36 22.48 82.77 22.82 C83.12 23.14 83.77 23.48 84.7 23.85 C85.85 24.31 86.69 24.85 87.23 25.46 C87.77 26.08 88.04 26.85 88.04 27.77 L88.04 27.77 Z"/><path d="M95.09 23.51 L92.74 23.51 L92.74 28.17 C92.74 29.35 93.15 29.94 93.98 29.94 C94.36 29.94 94.68 29.91 94.93 29.85 L94.99 31.46 C94.57 31.62 94.02 31.7 93.33 31.7 C92.49 31.7 91.83 31.44 91.35 30.93 C90.88 30.42 90.64 29.55 90.64 28.34 L90.64 23.51 L89.24 23.51 L89.24 21.91 L90.64 21.91 L90.64 20.15 L92.74 19.52 L92.74 21.91 L95.09 21.91 L95.09 23.51 L95.09 23.51 Z"/><path d="M105.69 26.63 C105.69 28.1 105.27 29.31 104.43 30.26 C103.54 31.23 102.37 31.72 100.91 31.72 C99.5 31.72 98.38 31.25 97.55 30.32 C96.71 29.39 96.29 28.21 96.29 26.79 C96.29 25.3 96.72 24.08 97.59 23.13 C98.45 22.19 99.61 21.71 101.07 21.71 C102.48 21.71 103.61 22.18 104.47 23.11 C105.28 24.02 105.69 25.19 105.69 26.63 L105.69 26.63 ZM103.48 26.7 C103.48 25.81 103.29 25.05 102.91 24.42 C102.46 23.65 101.82 23.27 100.99 23.27 C100.14 23.27 99.48 23.65 99.04 24.42 C98.66 25.05 98.47 25.82 98.47 26.74 C98.47 27.62 98.66 28.38 99.04 29.01 C99.5 29.78 100.14 30.16 100.97 30.16 C101.79 30.16 102.43 29.77 102.89 28.99 C103.28 28.35 103.48 27.58 103.48 26.7 L103.48 26.7 Z"/><path d="M112.62 23.78 C112.41 23.74 112.19 23.72 111.95 23.72 C111.2 23.72 110.62 24.01 110.21 24.57 C109.86 25.07 109.68 25.71 109.68 26.47 L109.68 31.5 L107.55 31.5 L107.57 24.93 C107.57 23.82 107.54 22.82 107.49 21.91 L109.34 21.91 L109.42 23.75 L109.48 23.75 C109.71 23.11 110.06 22.61 110.55 22.22 C111.02 21.88 111.53 21.71 112.09 21.71 C112.28 21.71 112.46 21.73 112.62 21.75 L112.62 23.78 L112.62 23.78 Z"/><path d="M122.16 26.25 C122.16 26.63 122.13 26.96 122.08 27.22 L115.68 27.22 C115.71 28.17 116.02 28.89 116.61 29.39 C117.15 29.84 117.85 30.06 118.7 30.06 C119.65 30.06 120.51 29.91 121.29 29.61 L121.62 31.09 C120.72 31.48 119.64 31.68 118.41 31.68 C116.92 31.68 115.75 31.24 114.9 30.37 C114.05 29.49 113.63 28.32 113.63 26.85 C113.63 25.4 114.02 24.19 114.81 23.23 C115.64 22.21 116.76 21.69 118.17 21.69 C119.55 21.69 120.6 22.21 121.31 23.23 C121.87 24.05 122.16 25.05 122.16 26.25 L122.16 26.25 ZM120.12 25.7 C120.14 25.07 120 24.52 119.71 24.06 C119.34 23.47 118.77 23.17 118.01 23.17 C117.31 23.17 116.75 23.46 116.31 24.04 C115.96 24.5 115.75 25.05 115.68 25.7 L120.12 25.7 L120.12 25.7 Z"/></g><g fill="#FFFFFF"><path d="M49.05 10.01 C49.05 11.19 48.7 12.07 47.99 12.67 C47.34 13.22 46.41 13.49 45.21 13.49 C44.61 13.49 44.1 13.46 43.68 13.41 L43.68 6.98 C44.23 6.89 44.83 6.85 45.48 6.85 C46.63 6.85 47.49 7.1 48.07 7.59 C48.72 8.16 49.05 8.96 49.05 10.01 L49.05 10.01 ZM47.95 10.04 C47.95 9.27 47.74 8.69 47.34 8.28 C46.94 7.88 46.35 7.67 45.57 7.67 C45.24 7.67 44.96 7.69 44.72 7.74 L44.72 12.63 C44.85 12.65 45.09 12.66 45.43 12.66 C46.23 12.66 46.85 12.43 47.29 11.99 C47.73 11.54 47.94 10.89 47.94 10.04 L47.95 10.04 Z"/><path d="M54.91 11.04 C54.91 11.76 54.7 12.36 54.29 12.82 C53.85 13.3 53.28 13.54 52.56 13.54 C51.87 13.54 51.32 13.31 50.91 12.85 C50.5 12.39 50.29 11.81 50.29 11.12 C50.29 10.38 50.5 9.79 50.93 9.32 C51.35 8.86 51.92 8.62 52.64 8.62 C53.33 8.62 53.89 8.85 54.31 9.31 C54.71 9.76 54.91 10.33 54.91 11.04 L54.91 11.04 ZM53.82 11.07 C53.82 10.64 53.73 10.26 53.54 9.95 C53.32 9.58 53.01 9.39 52.6 9.39 C52.18 9.39 51.86 9.58 51.64 9.95 C51.45 10.26 51.36 10.64 51.36 11.09 C51.36 11.53 51.45 11.9 51.64 12.21 C51.87 12.58 52.18 12.77 52.59 12.77 C52.99 12.77 53.3 12.58 53.53 12.2 C53.73 11.88 53.82 11.51 53.82 11.07 L53.82 11.07 Z"/><path d="M62.77 8.72 L61.29 13.43 L60.33 13.43 L59.72 11.39 C59.56 10.88 59.44 10.37 59.34 9.86 L59.32 9.86 C59.23 10.38 59.1 10.89 58.94 11.39 L58.29 13.43 L57.32 13.43 L55.94 8.72 L57.01 8.72 L57.55 10.96 C57.67 11.49 57.78 12 57.87 12.47 L57.88 12.47 C57.96 12.08 58.09 11.58 58.27 10.97 L58.94 8.72 L59.8 8.72 L60.44 10.92 C60.59 11.46 60.72 11.98 60.82 12.47 L60.84 12.47 C60.91 11.99 61.02 11.47 61.16 10.92 L61.74 8.72 L62.77 8.72 L62.77 8.72 Z"/><path d="M68.2 13.43 L67.15 13.43 L67.15 10.73 C67.15 9.9 66.83 9.48 66.2 9.48 C65.89 9.48 65.64 9.6 65.44 9.83 C65.25 10.06 65.15 10.33 65.15 10.64 L65.15 13.43 L64.1 13.43 L64.1 10.07 C64.1 9.65 64.09 9.2 64.07 8.72 L64.99 8.72 L65.04 9.45 L65.06 9.45 C65.19 9.23 65.37 9.04 65.61 8.89 C65.89 8.71 66.21 8.62 66.56 8.62 C67 8.62 67.36 8.76 67.66 9.05 C68.02 9.4 68.2 9.92 68.2 10.61 L68.2 13.43 L68.2 13.43 Z"/><path d="M71.09 13.43 L70.04 13.43 L70.04 6.56 L71.09 6.56 L71.09 13.43 L71.09 13.43 Z"/><path d="M77.26 11.04 C77.26 11.76 77.05 12.36 76.64 12.82 C76.2 13.3 75.63 13.54 74.91 13.54 C74.22 13.54 73.67 13.31 73.26 12.85 C72.85 12.39 72.64 11.81 72.64 11.12 C72.64 10.38 72.85 9.79 73.28 9.32 C73.7 8.86 74.27 8.62 74.99 8.62 C75.68 8.62 76.23 8.85 76.66 9.31 C77.06 9.76 77.26 10.33 77.26 11.04 L77.26 11.04 ZM76.17 11.07 C76.17 10.64 76.08 10.26 75.89 9.95 C75.67 9.58 75.36 9.39 74.95 9.39 C74.53 9.39 74.21 9.58 73.99 9.95 C73.8 10.26 73.71 10.64 73.71 11.09 C73.71 11.53 73.8 11.9 73.99 12.21 C74.22 12.58 74.53 12.77 74.94 12.77 C75.34 12.77 75.65 12.58 75.88 12.2 C76.07 11.88 76.17 11.51 76.17 11.07 L76.17 11.07 Z"/><path d="M82.33 13.43 L81.39 13.43 L81.31 12.89 L81.28 12.89 C80.96 13.32 80.5 13.54 79.91 13.54 C79.46 13.54 79.1 13.4 78.83 13.11 C78.58 12.86 78.46 12.53 78.46 12.15 C78.46 11.58 78.7 11.14 79.18 10.83 C79.66 10.53 80.34 10.38 81.22 10.39 L81.22 10.3 C81.22 9.68 80.89 9.37 80.24 9.37 C79.77 9.37 79.36 9.49 79.01 9.72 L78.8 9.03 C79.23 8.76 79.77 8.62 80.41 8.62 C81.64 8.62 82.26 9.27 82.26 10.57 L82.26 12.31 C82.26 12.78 82.28 13.16 82.33 13.43 L82.33 13.43 ZM81.24 11.81 L81.24 11.09 C80.09 11.07 79.51 11.38 79.51 12.04 C79.51 12.28 79.57 12.47 79.71 12.59 C79.84 12.71 80.02 12.77 80.22 12.77 C80.45 12.77 80.67 12.7 80.86 12.55 C81.06 12.41 81.18 12.22 81.23 12 C81.24 11.95 81.24 11.88 81.24 11.81 L81.24 11.81 Z"/><path d="M88.28 13.43 L87.35 13.43 L87.31 12.68 L87.28 12.68 C86.98 13.25 86.47 13.54 85.76 13.54 C85.19 13.54 84.72 13.32 84.35 12.87 C83.97 12.42 83.78 11.85 83.78 11.13 C83.78 10.37 83.99 9.75 84.4 9.28 C84.79 8.84 85.27 8.62 85.85 8.62 C86.48 8.62 86.93 8.83 87.18 9.26 L87.2 9.26 L87.2 6.56 L88.25 6.56 L88.25 12.16 C88.25 12.62 88.26 13.04 88.28 13.43 L88.28 13.43 ZM87.2 11.45 L87.2 10.66 C87.2 10.52 87.19 10.41 87.17 10.33 C87.11 10.08 86.98 9.87 86.79 9.69 C86.6 9.52 86.36 9.44 86.09 9.44 C85.7 9.44 85.39 9.59 85.17 9.9 C84.94 10.21 84.83 10.61 84.83 11.1 C84.83 11.56 84.94 11.94 85.15 12.23 C85.38 12.54 85.69 12.7 86.07 12.7 C86.41 12.7 86.69 12.57 86.9 12.31 C87.1 12.07 87.2 11.78 87.2 11.45 L87.2 11.45 Z"/><path d="M97.25 11.04 C97.25 11.76 97.04 12.36 96.63 12.82 C96.19 13.3 95.62 13.54 94.9 13.54 C94.21 13.54 93.66 13.31 93.25 12.85 C92.84 12.39 92.63 11.81 92.63 11.12 C92.63 10.38 92.84 9.79 93.27 9.32 C93.69 8.86 94.26 8.62 94.98 8.62 C95.67 8.62 96.23 8.85 96.65 9.31 C97.05 9.76 97.25 10.33 97.25 11.04 L97.25 11.04 ZM96.16 11.07 C96.16 10.64 96.07 10.26 95.88 9.95 C95.66 9.58 95.35 9.39 94.94 9.39 C94.52 9.39 94.2 9.58 93.98 9.95 C93.79 10.26 93.7 10.64 93.7 11.09 C93.7 11.53 93.79 11.9 93.98 12.21 C94.21 12.58 94.52 12.77 94.93 12.77 C95.33 12.77 95.65 12.58 95.87 12.2 C96.06 11.88 96.16 11.51 96.16 11.07 L96.16 11.07 Z"/><path d="M102.88 13.43 L101.84 13.43 L101.84 10.73 C101.84 9.9 101.52 9.48 100.88 9.48 C100.57 9.48 100.32 9.6 100.13 9.83 C99.94 10.06 99.84 10.33 99.84 10.64 L99.84 13.43 L98.79 13.43 L98.79 10.07 C98.79 9.65 98.78 9.2 98.75 8.72 L99.67 8.72 L99.72 9.45 L99.75 9.45 C99.87 9.23 100.05 9.04 100.29 8.89 C100.58 8.71 100.9 8.62 101.24 8.62 C101.68 8.62 102.05 8.76 102.34 9.05 C102.7 9.4 102.88 9.92 102.88 10.61 L102.88 13.43 L102.88 13.43 Z"/><path d="M109.94 9.5 L108.78 9.5 L108.78 11.79 C108.78 12.38 108.99 12.67 109.39 12.67 C109.58 12.67 109.74 12.65 109.86 12.62 L109.89 13.41 C109.68 13.49 109.41 13.53 109.07 13.53 C108.66 13.53 108.34 13.4 108.1 13.15 C107.87 12.9 107.75 12.48 107.75 11.88 L107.75 9.5 L107.06 9.5 L107.06 8.72 L107.75 8.72 L107.75 7.85 L108.78 7.55 L108.78 8.72 L109.94 8.72 L109.94 9.5 L109.94 9.5 Z"/><path d="M115.48 13.43 L114.44 13.43 L114.44 10.75 C114.44 9.91 114.12 9.48 113.49 9.48 C113 9.48 112.67 9.73 112.49 10.22 C112.45 10.32 112.44 10.45 112.44 10.6 L112.44 13.43 L111.39 13.43 L111.39 6.56 L112.44 6.56 L112.44 9.4 L112.46 9.4 C112.79 8.88 113.26 8.62 113.87 8.62 C114.31 8.62 114.67 8.76 114.95 9.05 C115.31 9.4 115.48 9.93 115.48 10.63 L115.48 13.43 L115.48 13.43 Z"/><path d="M121.21 10.85 C121.21 11.04 121.19 11.2 121.17 11.33 L118.03 11.33 C118.04 11.79 118.19 12.15 118.48 12.39 C118.75 12.62 119.09 12.72 119.51 12.72 C119.97 12.72 120.4 12.65 120.78 12.5 L120.94 13.23 C120.5 13.42 119.97 13.52 119.36 13.52 C118.63 13.52 118.06 13.31 117.64 12.88 C117.22 12.45 117.02 11.87 117.02 11.14 C117.02 10.43 117.21 9.84 117.6 9.37 C118 8.87 118.55 8.61 119.25 8.61 C119.92 8.61 120.44 8.87 120.79 9.37 C121.07 9.77 121.21 10.27 121.21 10.85 L121.21 10.85 ZM120.21 10.58 C120.22 10.27 120.15 10 120 9.78 C119.82 9.49 119.55 9.34 119.17 9.34 C118.83 9.34 118.55 9.48 118.34 9.77 C118.16 9.99 118.06 10.27 118.03 10.58 L120.21 10.58 L120.21 10.58 Z"/></g></g></g></g></svg>