<?xml version="1.0" encoding="UTF-8" standalone="no"?>
<svg width="100px" height="100px" viewBox="0 0 100 100" version="1.1" xmlns="http://www.w3.org/2000/svg" xmlns:xlink="http://www.w3.org/1999/xlink" xmlns:sketch="http://www.bohemiancoding.com/sketch/ns">
    <!-- Generator: Sketch 3.0.2 (7799) - http://www.bohemiancoding.com/sketch -->
    <title>Artboard 1</title>
    <description>Created with Sketch.</description>
    <defs></defs>
    <g id="Page-1" stroke="none" stroke-width="1" fill="none" fill-rule="evenodd" sketch:type="MSPage">
        <g id="Artboard-1" sketch:type="MSArtboardGroup" stroke="#727272" stroke-width="2">
            <g id="android" sketch:type="MSLayerGroup" transform="translate(11.000000, 4.000000)">
                <path d="M27.1627595,19.7384516 C27.750557,19.7384516 28.2557468,19.5267527 28.6783291,19.1033548 C29.1009114,18.679957 29.3122025,18.1737921 29.3122025,17.5848602 C29.3122025,16.9959283 29.1009114,16.4897634 28.6783291,16.0663656 C28.2557468,15.6429677 27.750557,15.4312688 27.1627595,15.4312688 C26.574962,15.4312688 26.0789873,15.6429677 25.6748354,16.0663656 C25.2706835,16.4897634 25.0686076,16.9959283 25.0686076,17.5848602 C25.0686076,18.1737921 25.2706835,18.679957 25.6748354,19.1033548 C26.0789873,19.5267527 26.574962,19.7384516 27.1627595,19.7384516 L27.1627595,19.7384516 Z M50.4136709,19.7384516 C51.0014684,19.7384516 51.497443,19.5267527 51.9015949,19.1033548 C52.3057468,18.679957 52.5078228,18.1737921 52.5078228,17.5848602 C52.5078228,16.9959283 52.3057468,16.4897634 51.9015949,16.0663656 C51.497443,15.6429677 51.0014684,15.4312688 50.4136709,15.4312688 C49.8258734,15.4312688 49.3206835,15.6429677 48.8981013,16.0663656 C48.475519,16.4897634 48.2642278,16.9959283 48.2642278,17.5848602 C48.2642278,18.1737921 48.475519,18.679957 48.8981013,19.1033548 C49.3206835,19.5267527 49.8258734,19.7384516 50.4136709,19.7384516 L50.4136709,19.7384516 Z M5.67524051,29.896043 C7.21812658,29.896043 8.54050633,30.448043 9.64237975,31.552043 C10.7442532,32.656043 11.2951899,33.9809749 11.2951899,35.5268387 L11.2951899,59.2648172 C11.2951899,60.8476129 10.7534684,62.1910108 9.67002532,63.2950108 C8.58658228,64.3990108 7.25498734,64.9510108 5.67524051,64.9510108 C4.09549367,64.9510108 2.75468354,64.3990108 1.65281013,63.2950108 C0.550936709,62.1910108 8.76935655e-16,60.8476129 0,59.2648172 L0,35.5268387 C0,33.9809749 0.550936709,32.656043 1.65281013,31.552043 C2.75468354,30.448043 4.09549367,29.896043 5.67524051,29.896043 L5.67524051,29.896043 Z M64.078481,30.9446452 L64.078481,67.7100215 C64.078481,69.4029534 63.4906835,70.8383513 62.3150886,72.0162151 C61.1394937,73.1940789 59.7252911,73.7830108 58.072481,73.7830108 L53.9404557,73.7830108 L53.9404557,86.3138065 C53.9404557,87.8966022 53.389519,89.24 52.2876456,90.344 C51.1857722,91.448 49.844962,92 48.2652152,92 C46.6854684,92 45.3446582,91.448 44.2427848,90.344 C43.1409114,89.24 42.5899747,87.8966022 42.5899747,86.3138065 L42.5899747,73.7830108 L34.9864557,73.7830108 L34.9864557,86.3138065 C34.9864557,87.8966022 34.435519,89.24 33.3336456,90.344 C32.2317722,91.448 30.890962,92 29.3112152,92 C27.7683291,92 26.4459494,91.448 25.3440759,90.344 C24.2422025,89.24 23.6912658,87.8966022 23.6912658,86.3138065 L23.6359747,73.7830108 L19.5592405,73.7830108 C17.8695696,73.7830108 16.4369367,73.1940789 15.2613418,72.0162151 C14.0857468,70.8383513 13.4979494,69.4029534 13.4979494,67.7100215 L13.4979494,30.9446452 L64.0774937,30.9446452 L64.078481,30.9446452 Z M51.2953671,8.58765591 C55.2256456,10.6116559 58.3660506,13.4362867 60.7165823,17.0615484 C63.0671139,20.68681 64.2423797,24.6523728 64.2423797,28.9582366 L13.2777722,28.9582366 C13.2777722,24.6523728 14.453038,20.68681 16.8035696,17.0615484 C19.1541013,13.4362867 22.3129367,10.6116559 26.2800759,8.58765591 L22.3682278,1.35625806 C22.1108608,0.878121864 22.2026835,0.510121864 22.6436962,0.252258065 C23.1209114,0.0313261649 23.4882025,0.141792115 23.7455696,0.583655914 L27.7127089,7.87045161 C31.2019747,6.32458781 34.8936456,5.55165591 38.7877215,5.55165591 C42.6817975,5.55165591 46.3734684,6.32458781 49.8627342,7.87045161 L53.8298734,0.583655914 C54.0872405,0.141792115 54.4545316,0.0313261649 54.9317468,0.252258065 C55.3727595,0.510121864 55.4645823,0.878121864 55.2072152,1.35625806 L51.2953671,8.58765591 Z M77.5764304,35.5268387 L77.5764304,59.2648172 C77.5764304,60.8476129 77.0254937,62.1910108 75.9236203,63.2950108 C74.8217468,64.3990108 73.4809367,64.9510108 71.9011899,64.9510108 C70.3583038,64.9510108 69.0359241,64.3990108 67.9340506,63.2950108 C66.8321772,62.1910108 66.2812405,60.8476129 66.2812405,59.2648172 L66.2812405,35.5268387 C66.2812405,33.944043 66.8321772,32.6098781 67.9340506,31.5243441 C69.0359241,30.43881 70.3583038,29.896043 71.9011899,29.896043 C73.4809367,29.896043 74.8217468,30.43881 75.9236203,31.5243441 C77.0254937,32.6098781 77.5764304,33.944043 77.5764304,35.5268387 L77.5764304,35.5268387 Z" id="Shape" sketch:type="MSShapeGroup"></path>
            </g>
        </g>
    </g>
</svg>