<?xml version="1.0" encoding="utf-8"?>
<svg version="1.1" xmlns="http://www.w3.org/2000/svg" xmlns:xlink="http://www.w3.org/1999/xlink" width="79" height="100" viewBox="0 0 79 100"><g></g>
<path d="M27.511 26.953q0.893 0 1.535-0.642t0.642-1.535-0.642-1.535-1.535-0.642-1.507 0.642-0.614 1.535 0.614 1.535 1.507 0.642zM51.060 26.953q0.893 0 1.507-0.642t0.614-1.535-0.614-1.535-1.507-0.642-1.535 0.642-0.642 1.535 0.642 1.535 1.535 0.642zM5.748 37.221q2.344 0 4.018 1.674t1.674 4.018v23.996q0 2.4-1.646 4.074t-4.046 1.674-4.074-1.674-1.674-4.074v-23.996q0-2.344 1.674-4.018t4.074-1.674zM64.9 38.281v37.165q0 2.567-1.786 4.353t-4.297 1.786h-4.185v12.667q0 2.4-1.674 4.074t-4.074 1.674-4.074-1.674-1.674-4.074v-12.667h-7.701v12.667q0 2.4-1.674 4.074t-4.074 1.674q-2.344 0-4.018-1.674t-1.674-4.074l-0.056-12.667h-4.129q-2.567 0-4.353-1.786t-1.786-4.353v-37.165h51.228zM51.953 15.681q5.971 3.069 9.542 8.566t3.571 12.026h-51.618q0-6.529 3.571-12.026t9.598-8.566l-3.962-7.31q-0.391-0.725 0.279-1.116 0.725-0.335 1.116 0.335l4.018 7.366q5.301-2.344 11.217-2.344t11.217 2.344l4.018-7.366q0.391-0.67 1.116-0.335 0.67 0.391 0.279 1.116zM78.571 42.913v23.996q0 2.4-1.674 4.074t-4.074 1.674q-2.344 0-4.018-1.674t-1.674-4.074v-23.996q0-2.4 1.674-4.046t4.018-1.646q2.4 0 4.074 1.646t1.674 4.046z" fill="#D2D2D2"></path>
</svg>
