<?xml version="1.0" encoding="UTF-8" standalone="no"?>
<svg width="100px" height="100px" viewBox="0 0 100 100" version="1.1" xmlns="http://www.w3.org/2000/svg" xmlns:xlink="http://www.w3.org/1999/xlink" xmlns:sketch="http://www.bohemiancoding.com/sketch/ns">
    <!-- Generator: Sketch 3.0.2 (7799) - http://www.bohemiancoding.com/sketch -->
    <title>Artboard 1</title>
    <description>Created with Sketch.</description>
    <defs></defs>
    <g id="Page-1" stroke="none" stroke-width="1" fill="none" fill-rule="evenodd" sketch:type="MSPage">
        <g id="Artboard-1" sketch:type="MSArtboardGroup" stroke="#727272">
            <g id="apple" sketch:type="MSLayerGroup" transform="translate(12.000000, 4.000000)">
                <path d="M75.7408205,66.342914 C74.3273504,70.892914 72.0980171,75.4432401 69.0528205,79.9938925 C64.376547,87.1290753 59.7184615,90.6966667 55.0785641,90.6966667 C53.3026325,90.6966667 50.7650769,90.1141362 47.4658974,88.9490753 C44.3485983,87.7840143 41.6119487,87.2014839 39.2559487,87.2014839 C37.0448034,87.2014839 34.4711966,87.8022796 31.5351282,89.003871 C28.5990598,90.2413405 26.2066838,90.8600753 24.358,90.8600753 C18.8483248,90.8600753 13.3928889,86.1460143 7.99169231,76.7178925 C2.66324786,67.2167097 -0.000974358974,58.0615878 -0.000974358974,49.2525269 C-0.000974358974,40.9529355 2.04712821,34.1455484 6.14333333,28.8303656 C10.2031624,23.5882437 15.3503761,20.9671828 21.5849744,20.9671828 C24.1949573,20.9671828 27.4028718,21.5131828 31.2087179,22.6051828 C34.9788376,23.6971828 37.4800171,24.2431828 38.7122564,24.2431828 C40.3433333,24.2431828 42.9351282,23.624448 46.487641,22.3869785 C50.1850085,21.149509 53.3204957,20.5307742 55.8941026,20.5307742 C60.2079145,20.5307742 64.0683248,21.7137742 67.4753333,24.0797742 C69.3603932,25.3903047 71.245453,27.2103047 73.1305128,29.5397742 C70.2671966,31.9788351 68.200906,34.1266308 66.931641,35.9831613 C64.575641,39.4052832 63.397641,43.1728136 63.397641,47.2857527 C63.397641,51.7998746 64.6480684,55.8586703 67.1489231,59.4621398 C69.6497778,63.0656093 72.5134188,65.3588746 75.7398462,66.3419355 L75.7408205,66.342914 Z M55.2968205,2.2935914 C55.2968205,4.51412186 54.7713162,6.9893871 53.7203077,9.7193871 C52.6329231,12.4493871 50.9472821,14.9611828 48.6633846,17.2547742 C46.7062222,19.2202437 44.748735,20.5307742 42.7909231,21.1863656 C41.4495556,21.5868961 39.5644957,21.8964265 37.1357436,22.114957 C37.2442222,16.6908351 38.6580171,12.0129785 41.3771282,8.0813871 C44.0592137,4.18632616 48.5903077,1.49253047 54.9704103,1.77635684e-15 C55.0067863,0.108939068 55.0522564,0.309204301 55.1068205,0.600795699 C55.1613846,0.892387097 55.2068547,1.09265233 55.2432308,1.2015914 C55.2432308,1.34706093 55.2523248,1.52906093 55.2705128,1.7475914 C55.2887009,1.96612186 55.2977949,2.14812186 55.2977949,2.2935914 L55.2968205,2.2935914 Z" id="Shape" sketch:type="MSShapeGroup"></path>
            </g>
        </g>
    </g>
</svg>