<?xml version="1.0" encoding="utf-8"?>
<svg version="1.1" xmlns="http://www.w3.org/2000/svg" xmlns:xlink="http://www.w3.org/1999/xlink" width="79" height="100" viewBox="0 0 79 100"><g></g>
<path d="M77.734 67.801q-2.176 6.975-6.864 13.951-7.199 10.938-14.342 10.938-2.734 0-7.813-1.786-4.799-1.786-8.426-1.786-3.404 0-7.924 1.842-4.52 1.897-7.366 1.897-8.482 0-16.797-14.453-8.203-14.565-8.203-28.069 0-12.723 6.306-20.871 6.25-8.036 15.848-8.036 4.018 0 9.877 1.674 5.804 1.674 7.701 1.674 2.511 0 7.98-1.897 5.692-1.897 9.654-1.897 6.641 0 11.886 3.627 2.902 2.009 5.804 5.58-4.408 3.739-6.362 6.585-3.627 5.246-3.627 11.551 0 6.92 3.85 12.444t8.817 7.031zM56.752 2.344q0 3.404-1.618 7.589-1.674 4.185-5.19 7.701-3.013 3.013-6.027 4.018-2.065 0.614-5.804 0.949 0.167-8.315 4.353-14.342 4.129-5.971 13.951-8.259 0.056 0.167 0.14 0.614t0.14 0.614q0 0.223 0.028 0.558t0.028 0.558z" fill="#D2D2D2"></path>
</svg>
