<?xml version="1.0" encoding="utf-8"?>
<!-- Generated by IcoMoon.io -->
<!DOCTYPE svg PUBLIC "-//W3C//DTD SVG 1.1//EN" "http://www.w3.org/Graphics/SVG/1.1/DTD/svg11.dtd">
<svg version="1.1" xmlns="http://www.w3.org/2000/svg" xmlns:xlink="http://www.w3.org/1999/xlink" width="100" height="100" viewBox="0 0 100 100">
<g>
</g>
	<path d="M73.25 42.565c-11.4-24.535-17.325-33.855-35.955-33.465-6.635 0.135-5.040-4.805-10.1-2.93-5.055 1.87-0.715 4.615-5.89 8.86-14.51 11.91-13.175 22.93-6.445 49.2 2.84 11.060-6.835 11.605-3.010 22.33 2.795 7.815 23.395 11.095 45.13 3.025 21.735-8.060 35.45-24.065 32.655-31.89-3.825-10.72-11.58-4.8-16.385-15.13zM54.62 82.98c-19.405 7.2-35.36 2.965-36.035 1.085-1.16-3.245 6.265-14.080 28.455-22.315 22.19-8.235 34.575-5.18 35.87-1.555 0.765 2.14-8.875 15.58-28.29 22.785zM48.385 65.51c-10.15 3.765-17.2 8.070-21.765 11.95 3.215 2.92 9.23 3.63 15.23 1.405 7.635-2.835 12.325-9.34 10.47-14.525-0.020-0.065-0.055-0.12-0.080-0.18-1.25 0.405-2.535 0.855-3.855 1.35z" fill="#727272"></path>
</svg>
