<?xml version="1.0" encoding="utf-8"?>
<!-- Generated by IcoMoon.io -->
<!DOCTYPE svg PUBLIC "-//W3C//DTD SVG 1.1//EN" "http://www.w3.org/Graphics/SVG/1.1/DTD/svg11.dtd">
<svg version="1.1" xmlns="http://www.w3.org/2000/svg" xmlns:xlink="http://www.w3.org/1999/xlink" width="131" height="100" viewBox="0 0 131 100">
<g>
</g>
	<path d="M111.413 43.822c-0.825-0.256-1.7 0.194-1.963 1.016-0.259 0.822 0.194 1.7 1.016 1.962 12.213 3.891 17.659 9.694 17.659 18.825 0 8.122-7.409 14.425-11.822 17.463-0.425 0.294-0.678 0.772-0.678 1.287v11.947c-2.281-0.85-6.259-2.781-9.769-6.734-0.366-0.409-0.922-0.597-1.463-0.497-0.891 0.172-1.8 0.416-2.722 0.662-1.594 0.428-3.237 0.872-4.797 0.872-8.025 0-13.644-1.725-19.388-5.947-0.7-0.513-1.672-0.359-2.184 0.334-0.513 0.697-0.362 1.672 0.331 2.184 6.334 4.656 12.487 6.553 21.241 6.553 1.972 0 3.822-0.497 5.609-0.978 0.556-0.153 1.109-0.303 1.656-0.431 5.841 6.169 12.447 7.572 12.734 7.628 0.103 0.022 0.206 0.031 0.313 0.031 0.356 0 0.709-0.122 0.988-0.353 0.366-0.297 0.575-0.741 0.575-1.209v-13.247c8.069-5.753 12.5-12.678 12.5-19.566 0-10.566-6.303-17.494-19.837-21.803zM103.125 42.188c0-24.050-21.931-42.188-51.009-42.188-29.225 0-52.116 18.534-52.116 42.194 0 14.184 10.034 24.347 18.75 30.497v20.737c0 0.531 0.269 1.022 0.712 1.313 0.259 0.166 0.553 0.25 0.85 0.25 0.216 0 0.434-0.047 0.641-0.138 0.456-0.203 11.122-5.050 20.247-15.028 3.953 0.734 8.425 1.441 12.481 1.441 29.572 0 49.444-15.706 49.444-39.078zM53.678 78.141c-4.094 0-8.747-0.784-12.759-1.55-0.541-0.097-1.097 0.087-1.462 0.497-6.406 7.225-13.934 11.816-17.581 13.794v-19.006c0-0.516-0.253-0.994-0.678-1.287-8.244-5.672-18.072-15.197-18.072-28.394 0-21.909 21.519-39.069 48.991-39.069 27.3 0 47.884 16.794 47.884 39.063 0 21.506-18.616 35.953-46.322 35.953zM51.563 35.938c-3.447 0-6.25 2.803-6.25 6.25s2.803 6.25 6.25 6.25 6.25-2.803 6.25-6.25-2.803-6.25-6.25-6.25zM51.563 45.313c-1.722 0-3.125-1.4-3.125-3.125s1.403-3.125 3.125-3.125 3.125 1.4 3.125 3.125-1.403 3.125-3.125 3.125zM73.438 35.938c-3.447 0-6.25 2.803-6.25 6.25s2.803 6.25 6.25 6.25 6.25-2.803 6.25-6.25-2.803-6.25-6.25-6.25zM73.438 45.313c-1.722 0-3.125-1.4-3.125-3.125s1.403-3.125 3.125-3.125 3.125 1.4 3.125 3.125-1.403 3.125-3.125 3.125zM29.688 36.234c-3.447 0-6.25 2.803-6.25 6.25s2.803 6.25 6.25 6.25 6.25-2.803 6.25-6.25-2.803-6.25-6.25-6.25zM29.688 45.609c-1.722 0-3.125-1.4-3.125-3.125s1.403-3.125 3.125-3.125 3.125 1.4 3.125 3.125-1.403 3.125-3.125 3.125z" fill="#727272"></path>
</svg>
