<?xml version="1.0" encoding="utf-8"?>
<!-- Generated by IcoMoon.io -->
<!DOCTYPE svg PUBLIC "-//W3C//DTD SVG 1.1//EN" "http://www.w3.org/Graphics/SVG/1.1/DTD/svg11.dtd">
<svg version="1.1" xmlns="http://www.w3.org/2000/svg" xmlns:xlink="http://www.w3.org/1999/xlink" width="107" height="100" viewBox="0 0 107 100">
<g>
</g>
	<path d="M34.431 78.069l-2.79 2.79q-0.558 0.558-1.283 0.558t-1.283-0.558l-26.004-26.004q-0.558-0.558-0.558-1.283t0.558-1.283l26.004-26.004q0.558-0.558 1.283-0.558t1.283 0.558l2.79 2.79q0.558 0.558 0.558 1.283t-0.558 1.283l-21.931 21.931 21.931 21.931q0.558 0.558 0.558 1.283t-0.558 1.283zM67.411 18.527l-20.815 72.042q-0.223 0.725-0.865 1.088t-1.311 0.14l-3.46-0.949q-0.725-0.223-1.088-0.865t-0.14-1.367l20.815-72.042q0.223-0.725 0.865-1.088t1.311-0.14l3.46 0.949q0.725 0.223 1.088 0.865t0.14 1.367zM104.074 54.855l-26.004 26.004q-0.558 0.558-1.283 0.558t-1.283-0.558l-2.79-2.79q-0.558-0.558-0.558-1.283t0.558-1.283l21.931-21.931-21.931-21.931q-0.558-0.558-0.558-1.283t0.558-1.283l2.79-2.79q0.558-0.558 1.283-0.558t1.283 0.558l26.004 26.004q0.558 0.558 0.558 1.283t-0.558 1.283z" fill="#727272"></path>
</svg>
