<?xml version="1.0" encoding="utf-8"?>
<!-- Generated by IcoMoon.io -->
<!DOCTYPE svg PUBLIC "-//W3C//DTD SVG 1.1//EN" "http://www.w3.org/Graphics/SVG/1.1/DTD/svg11.dtd">
<svg version="1.1" xmlns="http://www.w3.org/2000/svg" xmlns:xlink="http://www.w3.org/1999/xlink" width="100" height="100" viewBox="0 0 100 100">
<g>
</g>
	<path d="M50-0.106c-27.628 0-50.109 22.475-50.109 50.106s22.481 50.106 50.109 50.106 50.109-22.475 50.109-50.106-22.481-50.106-50.109-50.106zM50 96.769c-25.788 0-46.766-20.981-46.766-46.769s20.978-46.769 46.766-46.769 46.766 20.981 46.766 46.769-20.978 46.769-46.766 46.769zM51.563 18.916c0.953 0 1.728-0.772 1.728-1.728v-6.25c0-0.956-0.775-1.728-1.728-1.728s-1.728 0.772-1.728 1.728v6.25c0 0.956 0.775 1.728 1.728 1.728zM17.188 46.709h-6.25c-0.953 0-1.728 0.772-1.728 1.728s0.775 1.728 1.728 1.728h6.25c0.953 0 1.728-0.772 1.728-1.728s-0.775-1.728-1.728-1.728zM81.084 48.438c0 0.956 0.775 1.728 1.728 1.728h6.25c0.953 0 1.728-0.772 1.728-1.728s-0.775-1.728-1.728-1.728h-6.25c-0.953 0-1.728 0.772-1.728 1.728zM26.797 31.65c0.444 0 0.884-0.169 1.222-0.506 0.675-0.675 0.675-1.766 0-2.441l-4.922-4.925c-0.675-0.678-1.766-0.678-2.441 0-0.675 0.675-0.675 1.766 0 2.441l4.922 4.922c0.334 0.341 0.778 0.509 1.219 0.509zM74.659 65.966c-0.675-0.678-1.766-0.678-2.441 0-0.675 0.675-0.675 1.766 0 2.441l4.688 4.688c0.338 0.338 0.778 0.506 1.222 0.506s0.884-0.169 1.222-0.506c0.675-0.675 0.675-1.766 0-2.441l-4.691-4.688zM77.784 24.659c0.675-0.675 0.675-1.766 0-2.441-0.675-0.678-1.766-0.678-2.441 0l-4.922 4.922c-0.675 0.675-0.675 1.766 0 2.441 0.338 0.338 0.778 0.506 1.222 0.506s0.884-0.169 1.222-0.506l4.919-4.922zM26.903 67.528l-4.688 4.688c-0.675 0.675-0.675 1.766 0 2.441 0.337 0.338 0.778 0.506 1.222 0.506s0.884-0.169 1.222-0.506l4.688-4.688c0.675-0.675 0.675-1.766 0-2.441s-1.769-0.675-2.444 0zM60.938 75h-21.875c-2.778-0.106-4.797 1.909-4.797 4.688v2.991c0 2.806 2.106 5.009 4.797 4.822h21.875c2.688 0.188 4.797-2.016 4.797-4.822v-2.991c0-2.778-2.019-4.794-4.797-4.688zM62.391 82.678c0 0.803-0.456 1.669-1.453 1.775h-21.875c-1-0.106-1.453-0.975-1.453-0.078v-2.991c0-2.622 0.528-3.153 1.453-3.259h21.875c0.925 0.106 1.453 0.638 1.453 1.563v2.991zM50 58.334c2.225 0 4.319-0.866 5.891-2.441 2.847-2.847 3.2-7.25 1.063-10.484l8.291-8.291c0.65-0.653 0.65-1.709 0-2.362-0.653-0.653-1.709-0.653-2.363 0l-8.3 8.3c-3.203-2.047-7.728-1.697-10.472 1.050-3.25 3.25-3.25 8.534 0 11.784 1.572 1.578 3.666 2.444 5.891 2.444zM47.056 47.056c0.784-0.788 1.831-1.222 2.944-1.222s2.159 0.434 2.947 1.222c1.625 1.625 1.625 4.266 0 5.891-1.572 1.575-4.316 1.575-5.891 0-1.625-1.625-1.625-4.269 0-5.891z" fill="#727272"></path>
</svg>
