<?xml version="1.0" encoding="UTF-8" standalone="no"?>
<svg width="26px" height="30px" viewBox="0 0 26 30" version="1.1" xmlns="http://www.w3.org/2000/svg" xmlns:xlink="http://www.w3.org/1999/xlink" xmlns:sketch="http://www.bohemiancoding.com/sketch/ns">
    <!-- Generator: Sketch 3.0.2 (7799) - http://www.bohemiancoding.com/sketch -->
    <title>Shape</title>
    <description>Created with Sketch.</description>
    <defs>
        <linearGradient x1="50%" y1="0%" x2="50%" y2="100%" id="linearGradient-1">
            <stop stop-color="#1AB6FF" offset="0%"></stop>
            <stop stop-color="#0763BD" offset="100%"></stop>
        </linearGradient>
    </defs>
    <g id="Page-1" stroke="none" stroke-width="1" fill="none" fill-rule="evenodd" sketch:type="MSPage">
        <g id="enterprise-ready" sketch:type="MSLayerGroup" fill="url(#linearGradient-1)">
            <path d="M12.5062253,0 C4.22717391,0 0.27055336,4.7316 0.105632411,4.9331 C0.0380434783,5.0175 3.55271368e-15,5.1225 3.55271368e-15,5.2322 L3.55271368e-15,14.6578 C3.55271368e-15,22.6303 7.24990119,27.3637 10.3662055,29.0287 C10.5921937,29.1496 10.8720356,29.0615 10.9923913,28.8328 C11.1118577,28.604 11.0248024,28.32 10.7988142,28.1991 C7.11175889,26.2294 0.926383399,21.8513 0.926383399,14.6569 L0.926383399,5.4103 C1.57667984,4.7025 5.2173913,1.1006 12.0429842,0.9431 L12.0429842,29.5312 C12.0429842,29.7899 12.2504941,30 12.5062253,30 C12.6442688,30 12.7683794,29.9391 12.8536561,29.8416 C14.3701581,29.1816 25.0124506,24.2025 25.0124506,14.5313 L25.0124506,5.1563 C25.0124506,5.0466 24.9745059,4.9407 24.9059289,4.8572 C24.7687747,4.6894 21.4653162,0.7556 14.5850791,0.0535 C14.330336,0.0357 14.1024704,0.2157 14.0773715,0.4726 C14.0514822,0.7304 14.2376482,0.9601 14.491502,0.9864 C20.3157115,1.5808 23.4802372,4.6848 24.0860672,5.3364 L24.0860672,14.5314 C24.0860672,22.9239 15.4123518,27.6086 12.9694664,28.7617 L12.9694664,0.4689 C12.9694664,0.2101 12.7619565,0.0001 12.5062253,0.0001 L12.5062253,0 Z" id="Shape" sketch:type="MSShapeGroup"></path>
        </g>
    </g>
</svg>