<?xml version="1.0" encoding="UTF-8" standalone="no"?>
<svg width="100px" height="77px" viewBox="0 0 100 77" version="1.1" xmlns="http://www.w3.org/2000/svg" xmlns:xlink="http://www.w3.org/1999/xlink" xmlns:sketch="http://www.bohemiancoding.com/sketch/ns">
    <!-- Generator: Sketch 3.0.2 (7799) - http://www.bohemiancoding.com/sketch -->
    <title>chat</title>
    <description>Created with Sketch.</description>
    <defs>
        <linearGradient x1="0%" y1="0%" x2="101.999998%" y2="100.999999%" id="linearGradient-1">
            <stop stop-color="#3023AE" offset="0%"></stop>
            <stop stop-color="#C96DD8" offset="100%"></stop>
        </linearGradient>
    </defs>
    <g id="Page-1" stroke="none" stroke-width="1" fill="none" fill-rule="evenodd" sketch:type="MSPage">
        <g id="chat" sketch:type="MSLayerGroup">
            <path id="Shape" stroke="#449FDB" opacity="0" fill="#000000" sketch:type="MSShapeGroup"></path>
            <path d="M84.8319797,33.74294 C84.2038071,33.5455633 83.5375635,33.8920633 83.3378173,34.5250033 C83.1403553,35.1579433 83.4852792,35.8340033 84.1111675,36.036 C93.4101523,39.0318133 97.5573604,43.5001233 97.5573604,50.53125 C97.5573604,56.78519 91.915736,61.6385 88.5558376,63.9775033 C88.2322335,64.2036267 88.0395939,64.5719433 88.0395939,64.96875 L88.0395939,74.16794 C86.3025381,73.51344 83.2736041,72.0263133 80.6015228,68.9825033 C80.3230964,68.6673167 79.8994924,68.5228133 79.4878173,68.5998133 C78.8096447,68.7322533 78.1172589,68.9198767 77.4152284,69.10981 C76.2017766,69.43937 74.9502538,69.78125 73.7626904,69.78125 C67.6522843,69.78125 63.3741117,68.453 59.0007614,65.20206 C58.4677665,64.8073067 57.727665,64.9253733 57.3375635,65.4594967 C56.9472081,65.9961867 57.0614213,66.7469367 57.5898477,67.1414333 C62.4129442,70.72681 67.0982234,72.1872433 73.7629442,72.1872433 C75.264467,72.1872433 76.6730964,71.8045533 78.0340102,71.4341833 C78.4576142,71.3163733 78.8786802,71.2008733 79.2951777,71.1020567 C83.7423858,75.85193 88.7725888,76.9324967 88.9913706,76.9756167 C89.069797,76.9925567 89.1484772,76.9997433 89.2294416,76.9997433 C89.5007614,76.9997433 89.7695431,76.9058033 89.9814721,76.7279333 C90.2598985,76.4992433 90.4192893,76.15762 90.4192893,75.7967467 L90.4192893,65.5965567 C96.5629442,61.1667467 99.9370558,55.8344967 99.9370558,50.5309933 C99.9370558,42.39543 95.1378173,37.06087 84.8324873,33.7426833 L84.8319797,33.74294 Z M78.5215736,32.4845033 C78.5215736,13.9660033 61.8225888,0 39.6819797,0 C17.4294416,0 0,14.2714367 0,32.4891233 C0,43.41106 7.64035533,51.2363133 14.2766497,55.9718133 L14.2766497,71.93956 C14.2766497,72.3486867 14.4812183,72.7265 14.8190355,72.9503133 C15.0164975,73.0778767 15.2401015,73.1428133 15.4662437,73.1428133 C15.6304569,73.1428133 15.7969543,73.1066233 15.9540609,73.03681 C16.3015228,72.8805 24.4225888,69.14831 31.3705584,61.46525 C34.3804569,62.0306867 37.785533,62.5745633 40.8741117,62.5745633 C63.3908629,62.5745633 78.5215736,50.4806867 78.5215736,32.4845033 L78.5215736,32.4845033 Z M31.1563452,58.9748133 C30.7446701,58.9001233 30.321066,59.04206 30.0426396,59.3575033 C25.1647208,64.9207533 19.4327411,68.4555667 16.6558376,69.9786267 L16.6558376,55.34375 C16.6558376,54.9466867 16.463198,54.5786267 16.1395939,54.3525033 C9.86269036,49.9850633 2.37918782,42.6508133 2.37918782,32.48938 C2.37918782,15.6191933 18.7639594,2.40650667 39.6817259,2.40650667 C60.4685279,2.40650667 76.1418782,15.33763 76.1418782,32.48476 C76.1418782,49.0446367 61.9675127,60.16857 40.8713198,60.16857 C37.7545685,60.1683133 34.2114213,59.5643767 31.1563452,58.9748133 Z M29.5845059,24.474148 C29.5304348,24.541668 29.5,24.625668 29.5,24.713428 L29.5,32.253908 C29.5,38.631908 35.2999209,42.418628 37.7929644,43.750628 C37.9737549,43.847348 38.1976285,43.776868 38.293913,43.593908 C38.3894862,43.410868 38.3198419,43.183668 38.1390514,43.086948 C35.1894071,41.511188 30.2411067,38.008708 30.2411067,32.253188 L30.2411067,24.855908 C30.7613439,24.289668 33.673913,21.408148 39.1343874,21.282148 L39.1343874,44.152628 C39.1343874,44.359588 39.3003953,44.527668 39.5049802,44.527668 C39.615415,44.527668 39.7147036,44.478948 39.7829249,44.400948 C40.9961265,43.872948 49.5099605,39.889668 49.5099605,32.152708 L49.5099605,24.652708 C49.5099605,24.564948 49.4796047,24.480228 49.4247431,24.413428 C49.3150198,24.279188 46.672253,21.132148 41.1680632,20.570468 C40.9642688,20.556228 40.7819763,20.700228 40.7618972,20.905748 C40.7411858,21.111988 40.8901186,21.295748 41.0932016,21.316788 C45.7525692,21.792308 48.2841897,24.275508 48.7688538,24.796788 L48.7688538,32.152788 C48.7688538,38.866788 41.8298814,42.614548 39.8755731,43.537028 L39.8755731,20.902788 C39.8755731,20.695748 39.7095652,20.527748 39.5049802,20.527748 C32.8817391,20.527668 29.7164427,24.312948 29.5845059,24.474148 Z" id="Shape" fill="url(#linearGradient-1)" sketch:type="MSShapeGroup"></path>
        </g>
    </g>
</svg>