<?xml version="1.0" encoding="UTF-8" standalone="no"?>
<svg width="33px" height="31px" viewBox="0 0 33 31" version="1.1" xmlns="http://www.w3.org/2000/svg" xmlns:xlink="http://www.w3.org/1999/xlink" xmlns:sketch="http://www.bohemiancoding.com/sketch/ns">
    <!-- Generator: Sketch 3.0.2 (7799) - http://www.bohemiancoding.com/sketch -->
    <title>Shape</title>
    <description>Created with Sketch.</description>
    <defs>
        <linearGradient x1="50%" y1="0%" x2="50%" y2="100%" id="linearGradient-1">
            <stop stop-color="#862FD9" offset="0%"></stop>
            <stop stop-color="#DD15DF" offset="100%"></stop>
        </linearGradient>
    </defs>
    <g id="Page-1" stroke="none" stroke-width="1" fill="none" fill-rule="evenodd" sketch:type="MSPage">
        <g id="enterprise-ready" sketch:type="MSLayerGroup" transform="translate(1.000000, -49.000000)" fill="url(#linearGradient-1)">
            <g id="features" transform="translate(-0.425727, 49.599441)" sketch:type="MSShapeGroup">
                <path d="M29.1565534,0 L1.88106796,0 C1.10797411,0 0,1.1044 0,1.875 L0,28.125 C0,28.8956 1.10797411,30 1.88106796,30 L29.1565534,30 C29.9296472,30 31.0376214,28.8956 31.0376214,28.125 L31.0376214,1.875 C31.0376214,1.1044 29.9296472,0 29.1565534,0 L29.1565534,0 Z M30.0970874,28.125 C30.0914693,28.3912 29.4236149,29.0569 29.1565534,29.0625 L1.88106796,29.0625 C1.61390615,29.0569 0.946152104,28.3912 0.940533981,28.125 L0.940533981,1.875 C0.946152104,1.6087 1.61390615,0.9431 1.88106796,0.9375 L29.1565534,0.9375 C29.4236149,0.9431 30.0914693,1.6087 30.0970874,1.875 L30.0970874,28.125 L30.0970874,28.125 Z M15.5188608,5.1563 C14.4814142,5.1563 13.6377929,5.9972 13.6377929,7.0313 C13.6377929,8.0654 14.4814142,8.9063 15.5188608,8.9063 C16.5563074,8.9063 17.3999288,8.0654 17.3999288,7.0313 C17.3999288,5.9972 16.5563074,5.1563 15.5188608,5.1563 L15.5188608,5.1563 Z M15.5188608,7.9688 C15.000589,7.9688 14.5783269,7.5479 14.5783269,7.0313 C14.5783269,6.5147 15.000589,6.0938 15.5188608,6.0938 C16.0371327,6.0938 16.4593948,6.5147 16.4593948,7.0313 C16.4593948,7.5479 16.0371327,7.9688 15.5188608,7.9688 L15.5188608,7.9688 Z M23.0431327,20.1563 C22.0056861,20.1563 21.1620647,20.9972 21.1620647,22.0313 C21.1620647,23.0654 22.0056861,23.9063 23.0431327,23.9063 C24.0805793,23.9063 24.9242006,23.0654 24.9242006,22.0313 C24.9242006,20.9972 24.0805793,20.1563 23.0431327,20.1563 L23.0431327,20.1563 Z M23.0431327,22.9688 C22.5248608,22.9688 22.1025987,22.5479 22.1025987,22.0313 C22.1025987,21.5147 22.5248608,21.0938 23.0431327,21.0938 C23.5614045,21.0938 23.9836667,21.5147 23.9836667,22.0313 C23.9836667,22.5479 23.5614045,22.9688 23.0431327,22.9688 L23.0431327,22.9688 Z M7.994589,15.4688 C6.95714239,15.4688 6.11352104,16.3097 6.11352104,17.3438 C6.11352104,18.3779 6.95714239,19.2188 7.994589,19.2188 C9.0320356,19.2188 9.87565696,18.3779 9.87565696,17.3438 C9.87565696,16.3097 9.0320356,15.4688 7.994589,15.4688 L7.994589,15.4688 Z M7.994589,18.2813 C7.47631715,18.2813 7.05405502,17.8604 7.05405502,17.3438 C7.05405502,16.8272 7.47631715,16.4063 7.994589,16.4063 C8.51286084,16.4063 8.93512298,16.8272 8.93512298,17.3438 C8.93512298,17.8604 8.51286084,18.2813 7.994589,18.2813 L7.994589,18.2813 Z M7.994589,14.0625 C8.25412621,14.0625 8.46490615,13.8525 8.46490615,13.5937 L8.46490615,5.1562 C8.46490615,4.8975 8.25422654,4.6874 7.994589,4.6874 C7.73495146,4.6874 7.52427184,4.8974 7.52427184,5.1562 L7.52427184,13.5937 C7.52427184,13.8525 7.73495146,14.0625 7.994589,14.0625 L7.994589,14.0625 Z M7.994589,20.625 C7.73505178,20.625 7.52427184,20.835 7.52427184,21.0938 L7.52427184,23.9063 C7.52427184,24.1651 7.73495146,24.3751 7.994589,24.3751 C8.25422654,24.3751 8.46490615,24.1651 8.46490615,23.9063 L8.46490615,21.0938 C8.46490615,20.835 8.25422654,20.625 7.994589,20.625 L7.994589,20.625 Z M15.5188608,10.3125 C15.2592233,10.3125 15.0485437,10.5225 15.0485437,10.7813 L15.0485437,23.9063 C15.0485437,24.1651 15.2592233,24.3751 15.5188608,24.3751 C15.7784984,24.3751 15.989178,24.1651 15.989178,23.9063 L15.989178,10.7813 C15.989178,10.5226 15.7784984,10.3125 15.5188608,10.3125 L15.5188608,10.3125 Z M23.0431327,18.75 C23.3027702,18.75 23.5134498,18.54 23.5134498,18.2812 L23.5134498,5.1562 C23.5134498,4.8975 23.3027702,4.6874 23.0431327,4.6874 C22.7834951,4.6874 22.5728155,4.8974 22.5728155,5.1562 L22.5728155,18.2812 C22.5728155,18.54 22.7834951,18.75 23.0431327,18.75 L23.0431327,18.75 Z" id="Shape"></path>
            </g>
        </g>
    </g>
</svg>