<?xml version="1.0" encoding="utf-8"?>
<!-- Generated by IcoMoon.io -->
<!DOCTYPE svg PUBLIC "-//W3C//DTD SVG 1.1//EN" "http://www.w3.org/Graphics/SVG/1.1/DTD/svg11.dtd">
<svg version="1.1" xmlns="http://www.w3.org/2000/svg" xmlns:xlink="http://www.w3.org/1999/xlink" width="161" height="100" viewBox="0 0 161 100">
<g>
</g>
	<path d="M15.741 81.292l-0.358 1.425h21.84c0.259-0.773 0.532-1.538 0.821-2.294h-19.7c3.604-12.851 11.896-23.302 22.394-28.131l1.786-0.821-1.594-1.15c-5.895-4.257-9.413-11.127-9.413-18.379 0-12.481 10.157-22.633 22.644-22.633 4.176 0 8.079 1.156 11.441 3.136 0.827-0.415 1.675-0.793 2.543-1.13-3.991-2.712-8.805-4.3-13.982-4.3-13.751 0-24.938 11.183-24.938 24.927 0 7.362 3.292 14.366 8.89 19.088-10.708 5.614-19.003 16.785-22.372 30.263z" fill="#727272"></path>
	<path d="M119.533 51.024c5.599-4.719 8.89-11.717 8.89-19.068 0-13.754-11.188-24.944-24.939-24.944-5.18 0-9.994 1.589-13.985 4.3 0.868 0.337 1.716 0.715 2.542 1.13 3.363-1.981 7.267-3.136 11.444-3.136 12.487 0 22.645 10.16 22.645 22.649 0 7.241-3.518 14.105-9.413 18.361l-1.594 1.15 1.786 0.821c10.495 4.83 18.788 15.282 22.394 28.135h-19.7c0.289 0.756 0.562 1.521 0.821 2.294h21.84l-0.358-1.426c-3.372-13.479-11.667-24.651-22.372-30.267z" fill="#727272"></path>
	<path d="M117.6 89.599h-77.556l0.358-1.425c3.37-13.479 11.664-24.65 22.372-30.265-5.598-4.721-8.89-11.726-8.89-19.088 0-13.745 11.187-24.927 24.938-24.927s24.939 11.189 24.939 24.944c0 7.351-3.291 14.349-8.89 19.068 10.705 5.616 19 16.788 22.372 30.267l0.357 1.426zM43.005 87.305h71.635c-3.606-12.853-11.898-23.304-22.394-28.135l-1.786-0.821 1.594-1.15c5.895-4.255 9.413-11.118 9.413-18.361 0-12.489-10.158-22.649-22.645-22.649s-22.644 10.154-22.644 22.633c0 7.252 3.518 14.122 9.413 18.379l1.594 1.15-1.786 0.821c-10.499 4.83-18.791 15.281-22.395 28.132z" fill="#727272"></path>
</svg>
