<?xml version="1.0" encoding="utf-8"?>
<!-- Generated by IcoMoon.io -->
<!DOCTYPE svg PUBLIC "-//W3C//DTD SVG 1.1//EN" "http://www.w3.org/Graphics/SVG/1.1/DTD/svg11.dtd">
<svg version="1.1" xmlns="http://www.w3.org/2000/svg" xmlns:xlink="http://www.w3.org/1999/xlink" width="131" height="100" viewBox="0 0 131 100">
<g>
</g>
	<path d="M10.938 81.25c0.862 0 1.563-0.7 1.563-1.563v-73.438c0-1.869 1.256-3.125 3.125-3.125h100c1.781 0 3.125 1.463 3.125 3.403v73.159c0 0.862 0.7 1.563 1.563 1.563s1.563-0.7 1.563-1.563v-73.159c0-3.662-2.744-6.528-6.25-6.528h-100c-3.622 0-6.25 2.628-6.25 6.25v73.438c0 0.862 0.7 1.563 1.563 1.563zM20.313 9.375c-0.863 0-1.563 0.7-1.563 1.563v68.75c0 0.862 0.7 1.563 1.563 1.563h90.625c0.863 0 1.563-0.7 1.563-1.563v-68.75c0-0.862-0.7-1.563-1.563-1.563h-90.625zM109.375 78.125h-87.5v-65.625h87.5v65.625zM129.688 87.5h-128.125c-0.863 0-1.563 0.7-1.563 1.563v3.672c0 3.744 4.4 7.266 7.813 7.266h115.625c3.578 0 7.813-4.234 7.813-7.813v-3.125c0-0.862-0.7-1.563-1.563-1.563zM128.125 92.188c0 1.841-2.847 4.688-4.688 4.688h-115.625c-1.972 0-4.688-2.4-4.688-4.141v-2.109h125v1.563z" fill="#727272"></path>
</svg>
