<?xml version="1.0" encoding="utf-8"?>
<!-- Generated by IcoMoon.io -->
<!DOCTYPE svg PUBLIC "-//W3C//DTD SVG 1.1//EN" "http://www.w3.org/Graphics/SVG/1.1/DTD/svg11.dtd">
<svg version="1.1" xmlns="http://www.w3.org/2000/svg" xmlns:xlink="http://www.w3.org/1999/xlink" width="59" height="100" viewBox="0 0 59 100">
<g>
</g>
	<path d="M4.688 100h50c2.584 0 4.688-2.103 4.688-4.688v-90.625c0-2.584-2.103-4.688-4.688-4.688h-50c-2.584 0-4.688 2.103-4.688 4.688v90.625c0 2.584 2.103 4.688 4.688 4.688zM3.125 4.688c0-0.863 0.7-1.563 1.563-1.563h50c0.862 0 1.563 0.7 1.563 1.563v90.625c0 0.862-0.7 1.563-1.563 1.563h-50c-0.863 0-1.563-0.7-1.563-1.563v-90.625zM7.813 84.375h43.75c0.862 0 1.563-0.7 1.563-1.563v-65.625c0-0.863-0.7-1.563-1.563-1.563h-43.75c-0.862 0-1.563 0.7-1.563 1.563v65.625c0 0.862 0.7 1.563 1.563 1.563zM9.375 18.75h40.625v62.5h-40.625v-62.5zM28.125 90.625c0 1.726 1.399 3.125 3.125 3.125s3.125-1.399 3.125-3.125c0-1.726-1.399-3.125-3.125-3.125-1.726 0-3.125 1.399-3.125 3.125zM23.438 12.5h12.5c0.862 0 1.563-0.7 1.563-1.563s-0.7-1.563-1.563-1.563h-12.5c-0.863 0-1.563 0.7-1.563 1.563s0.7 1.563 1.563 1.563z" fill="#727272"></path>
</svg>
