<?xml version="1.0" encoding="UTF-8" standalone="no"?>
<svg width="29px" height="32px" viewBox="0 0 29 32" version="1.1" xmlns="http://www.w3.org/2000/svg" xmlns:xlink="http://www.w3.org/1999/xlink" xmlns:sketch="http://www.bohemiancoding.com/sketch/ns">
    <!-- Generator: Sketch 3.0.2 (7799) - http://www.bohemiancoding.com/sketch -->
    <title>security</title>
    <description>Created with Sketch.</description>
    <defs>
        <linearGradient x1="50%" y1="0%" x2="50%" y2="100%" id="linearGradient-1">
            <stop stop-color="#FFDD00" offset="0%"></stop>
            <stop stop-color="#FF9300" offset="100%"></stop>
        </linearGradient>
    </defs>
    <g id="Page-1" stroke="none" stroke-width="1" fill="none" fill-rule="evenodd" sketch:type="MSPage">
        <g id="security" sketch:type="MSLayerGroup" transform="translate(0.652118, 0.600530)">
            <path id="Shape" stroke="#449FDB" opacity="0" fill="#000000" sketch:type="MSShapeGroup"></path>
            <path d="M13.6123509,1.43291215e-15 C8.25100333,1.43291215e-15 3.88924311,4.24060021 3.88924311,9.45302145 L3.88924311,12.2889279 L2.43072509,12.2889279 C1.09085491,12.2889279 -0.00010371315,13.3495821 -0.00010371315,14.6522337 L-0.00010371315,27.8864637 C-0.00010371315,29.1891153 1.09085491,30.2497695 2.43072509,30.2497695 L24.793873,30.2497695 C26.1337432,30.2497695 27.2247018,29.1891153 27.2247018,27.8864637 L27.2247018,14.6522337 C27.2247018,13.3495821 26.1337432,12.2889279 24.793873,12.2889279 L23.3353549,12.2889279 L23.3353549,9.45302145 C23.3353549,4.24060021 18.9735947,0 13.6122472,0 L13.6123509,1.43291215e-15 Z M4.86155389,9.45302145 C4.86155389,4.762407 8.78771888,0.945302145 13.6123509,0.945302145 C18.4369829,0.945302145 22.3631479,4.762407 22.3631479,9.45302145 L22.3631479,12.2889279 L19.4462156,12.2889279 L19.4462156,9.45302145 C19.4462156,6.32500405 16.8297402,3.78120858 13.6123509,3.78120858 C10.3949616,3.78120858 7.77848622,6.32500405 7.77848622,9.45302145 L7.77848622,12.2889279 L4.86155389,12.2889279 L4.86155389,9.45302145 L4.86155389,9.45302145 Z M18.4739048,12.2889279 L8.750797,12.2889279 L8.750797,9.45302145 C8.750797,6.84681083 10.9316771,4.72651072 13.6123509,4.72651072 C16.2930247,4.72651072 18.4739048,6.84681083 18.4739048,9.45302145 L18.4739048,12.2889279 L18.4739048,12.2889279 Z M11.9526294,19.851345 L7.09107546,24.5778558 L2.63203231,24.5778558 L7.4935862,19.851345 L11.9526294,19.851345 L11.9526294,19.851345 Z M17.786494,19.851345 L12.9249401,24.5778558 L8.46589698,24.5778558 L13.3274509,19.851345 L17.786494,19.851345 L17.786494,19.851345 Z M23.6203587,19.851345 L18.7588048,24.5778558 L14.2997616,24.5778558 L19.1613155,19.851345 L23.6203587,19.851345 L23.6203587,19.851345 Z M26.252391,19.851345 L26.252391,24.5778558 L20.1336263,24.5778558 L24.9951802,19.851345 L26.252391,19.851345 L26.252391,19.851345 Z M1.2572108,24.5778558 L0.972310778,24.5778558 L0.972310778,19.851345 L6.11876469,19.851345 L1.2572108,24.5778558 L1.2572108,24.5778558 Z M24.7939767,29.3043665 L2.4308288,29.3043665 C1.62674075,29.3043665 0.972310778,28.668216 0.972310778,27.8863629 L0.972310778,25.5230571 L26.252391,25.5230571 L26.252391,27.8863629 C26.252391,28.6681151 25.5980647,29.3043665 24.793873,29.3043665 L24.7939767,29.3043665 Z M26.252391,14.6522337 L26.252391,18.9061437 L0.972310778,18.9061437 L0.972310778,14.6522337 C0.972310778,13.8704814 1.62663704,13.23423 2.4308288,13.23423 L24.7939767,13.23423 C25.5980647,13.23423 26.2524947,13.8703806 26.2524947,14.6522337 L26.252391,14.6522337 Z" id="Shape" fill="url(#linearGradient-1)" sketch:type="MSShapeGroup"></path>
        </g>
    </g>
</svg>