<?xml version="1.0" encoding="utf-8"?>
<!-- Generated by IcoMoon.io -->
<!DOCTYPE svg PUBLIC "-//W3C//DTD SVG 1.1//EN" "http://www.w3.org/Graphics/SVG/1.1/DTD/svg11.dtd">
<svg version="1.1" xmlns="http://www.w3.org/2000/svg" xmlns:xlink="http://www.w3.org/1999/xlink" width="78" height="100" viewBox="0 0 78 100">
<g>
</g>
	<path d="M4.688 100h68.75c2.584 0 4.688-2.103 4.688-4.688v-90.625c0-2.584-2.103-4.688-4.688-4.688h-68.75c-2.584 0-4.688 2.103-4.688 4.688v90.625c0 2.584 2.103 4.688 4.688 4.688zM3.125 4.688c0-0.863 0.7-1.563 1.563-1.563h68.75c0.862 0 1.563 0.7 1.563 1.563v90.625c0 0.862-0.7 1.563-1.563 1.563h-68.75c-0.863 0-1.563-0.7-1.563-1.563v-90.625zM10.938 84.375h56.25c0.862 0 1.563-0.7 1.563-1.563v-71.875c0-0.862-0.7-1.563-1.563-1.563h-56.25c-0.862 0-1.563 0.7-1.563 1.563v71.875c0 0.862 0.7 1.563 1.563 1.563zM12.5 12.5h53.125v68.75h-53.125v-68.75zM37.5 90.625c0 1.726 1.399 3.125 3.125 3.125s3.125-1.399 3.125-3.125c0-1.726-1.399-3.125-3.125-3.125-1.726 0-3.125 1.399-3.125 3.125z" fill="#727272"></path>
</svg>
