<?xml version="1.0" encoding="UTF-8" standalone="no"?>
<svg width="100px" height="100px" viewBox="0 0 100 100" version="1.1" xmlns="http://www.w3.org/2000/svg" xmlns:xlink="http://www.w3.org/1999/xlink" xmlns:sketch="http://www.bohemiancoding.com/sketch/ns">
    <!-- Generator: Sketch 3.0.2 (7799) - http://www.bohemiancoding.com/sketch -->
    <title>Artboard 1</title>
    <description>Created with Sketch.</description>
    <defs></defs>
    <g id="Page-1" stroke="none" stroke-width="1" fill="none" fill-rule="evenodd" sketch:type="MSPage">
        <g id="Artboard-1" sketch:type="MSArtboardGroup" fill="#727272">
            <g id="user" sketch:type="MSLayerGroup" transform="translate(6.000000, 7.000000)">
                <g id="Page-1" sketch:type="MSShapeGroup">
                    <path d="M88,85 L0,85 L0.406069749,83.4004546 C4.22989322,68.2665909 13.6410802,55.7239394 25.790635,49.4197727 C19.4392877,44.1188636 15.7039666,36.2537879 15.7039666,27.9881819 C15.7039666,12.5555303 28.3975508,0 44,0 C59.6024492,0 72.2973348,12.5632576 72.2973348,28.0062121 C72.2973348,36.2602273 68.5633152,44.1175758 62.2106664,49.4159091 C74.3576182,55.7213636 83.7688052,68.2653031 87.5952317,83.3991667 L88,85 L88,85 Z M3.35918597,82.4242425 L84.640814,82.4242425 C80.5488803,67.9935606 71.1402964,56.2584091 59.2315201,50.8351515 L57.2050759,49.9130302 L59.0141687,48.6212879 C65.702606,43.8432575 69.6943236,36.1378788 69.6943236,28.0062121 C69.6943236,13.9837879 58.16819,2.57575758 44,2.57575758 C29.83181,2.57575758 18.3069779,13.9760606 18.3069779,27.9881819 C18.3069779,36.1301515 22.2986956,43.8445454 28.9871329,48.6238636 L30.7962256,49.915606 L28.7697814,50.8377273 C16.8571005,56.2609848 7.44851659,67.9948485 3.35918597,82.4242425 L3.35918597,82.4242425 L3.35918597,82.4242425 Z" id="Shape"></path>
                </g>
            </g>
        </g>
    </g>
</svg>