<?xml version="1.0" encoding="utf-8"?> <svg version="1.1" xmlns="http://www.w3.org/2000/svg" xmlns:xlink="http://www.w3.org/1999/xlink" width="100" height="100" viewBox="0 0 100 100"><g></g><path d="M50 1.995c-26.47 0-48 21.54-48 48.005 0 26.47 21.53 48.005 48 48.005s48-21.535 48-48.005c0-26.465-21.53-48.005-48-48.005zM90.94 50c0 9.365-3.18 18.005-8.48 24.905-1.5-1.175-3.090-4.34-1.59-7.62 1.51-3.3 1.905-10.94 1.56-13.91-0.33-2.97-1.875-10.13-6.075-10.2-4.185-0.065-7.060-1.445-9.55-6.415-5.165-10.335 9.695-12.325 4.53-18.050-1.445-1.605-8.915 6.62-10.010-4.34-0.075-0.785 0.675-1.96 1.675-3.175 16.22 5.45 27.94 20.78 27.94 38.805zM44.375 9.47c-0.975 1.9-3.56 2.68-5.135 4.115-3.415 3.090-4.885 2.665-6.73 5.635-1.85 2.97-7.83 7.245-7.83 9.395 0 2.145 3.020 4.685 4.53 4.19 1.51-0.5 5.49-0.47 7.83 0.35 2.345 0.83 19.575 1.655 14.080 16.22-1.74 4.63-9.36 3.85-11.39 11.52-0.305 1.125-1.355 5.93-1.43 7.5-0.12 2.43 1.72 11.59-0.625 11.59-2.355 0-8.685-8.195-8.685-9.68s-1.645-6.695-1.645-11.15-7.585-4.385-7.585-10.31c0-5.35 4.115-8.010 3.19-10.565-0.91-2.55-8.135-2.64-11.145-2.95 5.26-13.66 17.645-23.8 32.57-25.86zM37.125 88.85c2.46-1.295 2.71-2.975 4.94-3.065 2.55-0.11 4.625-0.995 7.495-1.625 2.555-0.555 7.115-3.145 11.14-3.475 3.385-0.28 10.075 0.175 11.875 3.445-6.48 4.3-14.24 6.81-22.575 6.81-4.5 0-8.825-0.74-12.875-2.090z" fill="#D2D2D2"></path></svg>
