<?xml version="1.0" encoding="UTF-8" standalone="no"?>
<svg width="100px" height="100px" viewBox="0 0 100 100" version="1.1" xmlns="http://www.w3.org/2000/svg" xmlns:xlink="http://www.w3.org/1999/xlink" xmlns:sketch="http://www.bohemiancoding.com/sketch/ns">
    <!-- Generator: Sketch 3.0.2 (7799) - http://www.bohemiancoding.com/sketch -->
    <title>Artboard 1</title>
    <description>Created with Sketch.</description>
    <defs></defs>
    <g id="Page-1" stroke="none" stroke-width="1" fill="none" fill-rule="evenodd" sketch:type="MSPage">
        <g id="Artboard-1" sketch:type="MSArtboardGroup" stroke="#727272" stroke-width="2">
            <g id="web" sketch:type="MSLayerGroup" transform="translate(6.000000, 6.000000)">
                <path d="M44,-0.00458333333 C19.7358333,-0.00458333333 0,19.7404167 0,44 C0,68.2641667 19.7358333,88.0045833 44,88.0045833 C68.2641667,88.0045833 88,68.2641667 88,44 C88,19.7404167 68.2641667,-0.00458333333 44,-0.00458333333 L44,-0.00458333333 Z M81.5283333,44 C81.5283333,52.5845833 78.6133333,60.5045833 73.755,66.8295833 C72.38,65.7525 70.9225,62.85125 72.2975,59.8445833 C73.6816667,56.8195833 74.04375,49.81625 73.7275,47.09375 C73.425,44.37125 72.00875,37.8079167 68.15875,37.74375 C64.3225,37.6841667 61.6870833,36.4191667 59.4045833,31.8633333 C54.67,22.3895833 68.2916667,20.5654167 63.5570833,15.3175 C62.2325,13.84625 55.385,21.3858333 54.38125,11.3391667 C54.3125,10.6195833 55,9.5425 55.9166667,8.42875 C70.785,13.4245833 81.5283333,27.4770833 81.5283333,44 L81.5283333,44 Z M38.84375,6.8475 C37.95,8.58916667 35.5804167,9.30416667 34.1366667,10.6195833 C31.00625,13.4520833 29.65875,13.0625 27.9675,15.785 C26.2716667,18.5075 20.79,22.42625 20.79,24.3970833 C20.79,26.3633333 23.5583333,28.6916667 24.9425,28.2379167 C26.3266667,27.7795833 29.975,27.8070833 32.12,28.55875 C34.2695833,29.3195833 50.06375,30.0758333 45.0266667,43.4270833 C43.4316667,47.67125 36.4466667,46.95625 34.5858333,53.9870833 C34.30625,55.0183333 33.34375,59.4229167 33.275,60.8620833 C33.165,63.0895833 34.8516667,71.48625 32.7020833,71.48625 C30.5433333,71.48625 24.7408333,63.9741667 24.7408333,62.6129167 C24.7408333,61.2516667 23.2329167,56.4758333 23.2329167,52.3920833 C23.2329167,48.3083333 16.28,48.3725 16.28,42.94125 C16.28,38.0370833 20.0520833,35.59875 19.2041667,33.2566667 C18.37,30.9191667 11.7470833,30.8366667 8.98791667,30.5525 C13.8095833,18.0308333 25.1625,8.73583333 38.84375,6.8475 L38.84375,6.8475 Z M32.1979167,79.6125 C34.4529167,78.4254167 34.6820833,76.8854167 36.72625,76.8029167 C39.06375,76.7020833 40.9658333,75.8908333 43.5966667,75.3133333 C45.93875,74.8045833 50.11875,72.4304167 53.8083333,72.1279167 C56.91125,71.87125 63.04375,72.2883333 64.69375,75.2858333 C58.75375,79.2275 51.6404167,81.5283333 44,81.5283333 C39.875,81.5283333 35.9104167,80.85 32.1979167,79.6125 L32.1979167,79.6125 Z" id="Shape" sketch:type="MSShapeGroup"></path>
            </g>
        </g>
    </g>
</svg>